# xmcd
#
# Track frame offsets:
#	187
#	15787
#	26835
#	40915
#	55302
#	65877
#	79665
#	93332
#	107775
#	122725
#	134290
#	149840
#	161837
#	171867
#	185915
#	197270
#	207820
#	215897
#	228100
#	241095
#	251697
#
# Disc length: 3538 seconds
#
# Revision: 4
# Processed by: cddbd v1.5.2PL0 Copyright (c) Steve Scherf et al.
# Submitted via: dBpowerAMP V4.0
#
DISCID=310dd015
DTITLE=Various Artist - Country Sweet 'n' Sentimental disc 1
DYEAR=1993
DGENRE=Country
TTITLE0=Ronnie Milsap, The Nashville Edition and Strings - I Honestly Love You
TTITLE1=Crystal Gayle - Somebody Loves You
TTITLE2=Eddy Arnold - Mary in the Morning
TTITLE3=Barbara Mandrell - I Love You Because
TTITLE4=Loretta Lynn, Conway Twitty - Never Ending Song of Love
TTITLE5=Patsy Cline - That's My Desire
TTITLE6=Jim ed Brown, Helen Cornelius - Have I Told You Lately That I Love You
TTITLE7=Bobby Goldboro - Roses are Red (My Love)
TTITLE8=Dolly Parton - Think About Love
TTITLE9=Charley Pride, The Jordanaires - I Can't Help It
TTITLE10=The Statler Brothers - All I Have to Offer You is Me
TTITLE11=Elvis Presley - It Keeps Right on Hurtin'
TTITLE12=Patsy Cline - Have You Ever Been Lonely
TTITLE13=Loretta Lynn - She's Got You
TTITLE14=Johnny Cash - Oh, Lonesome Mee
TTITLE15=Jeannie C Riley - Help Me Make it Through the Night
TTITLE16=Merle Haggard - Walking the Floor Over You
TTITLE17=Donna Fargo - Before the Next Teardrop Falls
TTITLE18=Patsy Cline - Someday
TTITLE19=Johnny Cash - Cold, Cold Heart
TTITLE20=Dottie West, The Jordanaires - I'm So Lonesome I Could Cry
EXTD=
EXTT0=
EXTT1=
EXTT2=
EXTT3=
EXTT4=
EXTT5=
EXTT6=
EXTT7=
EXTT8=
EXTT9=
EXTT10=
EXTT11=
EXTT12=
EXTT13=
EXTT14=
EXTT15=
EXTT16=
EXTT17=
EXTT18=
EXTT19=
EXTT20=
PLAYORDER=
